<?xml version="1.0" encoding="UTF-8"?>
<svg xmlns="http://www.w3.org/2000/svg" xmlns:xlink="http://www.w3.org/1999/xlink" width="24px" height="24px" viewBox="0 0 24 24" version="1.1">
<defs>
<filter id="alpha" filterUnits="objectBoundingBox" x="0%" y="0%" width="100%" height="100%">
  <feColorMatrix type="matrix" in="SourceGraphic" values="0 0 0 0 1 0 0 0 0 1 0 0 0 0 1 0 0 0 1 0"/>
</filter>
<mask id="mask0">
  <g filter="url(#alpha)">
<rect x="0" y="0" width="24" height="24" style="fill:rgb(0%,0%,0%);fill-opacity:0.980392;stroke:none;"/>
  </g>
</mask>
<clipPath id="clip1">
  <rect x="0" y="0" width="24" height="24"/>
</clipPath>
<g id="surface5" clip-path="url(#clip1)">
<path style=" stroke:none;fill-rule:evenodd;fill:rgb(94.117647%,27.45098%,27.45098%);fill-opacity:1;" d="M 9.898438 -0.0585938 C 11.261719 -0.0585938 12.621094 -0.0585938 13.980469 -0.0585938 C 18.433594 0.878906 21.511719 3.398438 23.21875 7.5 C 23.339844 7.96875 23.542969 8.386719 23.820312 8.761719 C 23.695312 9.121094 23.734375 9.460938 23.941406 9.78125 C 23.941406 11.21875 23.941406 12.660156 23.941406 14.101562 C 23.371094 17 21.890625 19.460938 19.5 21.480469 C 17.789062 22.738281 15.992188 23.558594 14.101562 23.941406 C 12.660156 23.941406 11.21875 23.941406 9.78125 23.941406 C 5.046875 22.886719 1.886719 20.023438 0.300781 15.359375 C 0.25 15.246094 0.171875 15.167969 0.0585938 15.121094 C 0.167969 14.722656 0.128906 14.34375 -0.0585938 13.980469 C -0.0585938 12.621094 -0.0585938 11.261719 -0.0585938 9.898438 C 0.707031 6.183594 2.746094 3.324219 6.058594 1.320312 C 7.332031 0.664062 8.609375 0.203125 9.898438 -0.0585938 Z M 5.699219 9.058594 C 9.933594 8.984375 14.152344 9.0625 18.359375 9.300781 C 18.8125 9.195312 19.234375 9.292969 19.621094 9.601562 C 20.007812 9.941406 20.308594 10.28125 20.519531 10.621094 C 20.582031 11.097656 20.683594 11.558594 20.820312 12 C 20.800781 12.199219 20.71875 12.359375 20.578125 12.480469 C 20.707031 12.648438 20.726562 12.828125 20.640625 13.019531 C 20.414062 13.496094 20.050781 13.9375 19.558594 14.339844 C 19.519531 14.300781 19.480469 14.261719 19.441406 14.21875 C 19.296875 14.511719 19.058594 14.667969 18.71875 14.699219 C 14.199219 14.859375 9.679688 14.859375 5.160156 14.699219 C 3.285156 13.914062 2.683594 12.550781 3.359375 10.621094 C 3.777344 9.921875 4.378906 9.441406 5.160156 9.179688 C 5.417969 9.375 5.597656 9.335938 5.699219 9.058594 Z M 5.699219 9.058594 "/>
</g>
</defs>
<g id="surface1">
<use xlink:href="#surface5" mask="url(#mask0)"/>
</g>
</svg>
