<?xml version="1.0" encoding="UTF-8"?>
<svg xmlns="http://www.w3.org/2000/svg" xmlns:xlink="http://www.w3.org/1999/xlink" width="24px" height="24px" viewBox="0 0 24 23" version="1.1">
<g id="surface1">
<path style=" stroke:none;fill-rule:evenodd;fill:rgb(97.647059%,65.098039%,9.803922%);fill-opacity:1;" d="M 11.550781 -0.00390625 C 11.847656 -0.00390625 12.144531 -0.00390625 12.441406 -0.00390625 C 15.25 0.121094 17.71875 1.054688 19.84375 2.789062 C 21.714844 4.359375 22.972656 6.300781 23.617188 8.613281 C 23.847656 9.484375 23.972656 10.371094 23.996094 11.265625 C 23.996094 11.417969 23.996094 11.574219 23.996094 11.726562 C 23.90625 14.496094 22.933594 16.925781 21.074219 19.023438 C 19.386719 20.871094 17.296875 22.089844 14.800781 22.6875 C 14.023438 22.863281 13.234375 22.964844 12.441406 22.996094 C 12.140625 22.996094 11.84375 22.996094 11.542969 22.996094 C 8.800781 22.871094 6.378906 21.976562 4.273438 20.308594 C 2.367188 18.75 1.074219 16.804688 0.398438 14.476562 C 0.164062 13.621094 0.03125 12.75 -0.00390625 11.863281 C -0.00390625 11.621094 -0.00390625 11.378906 -0.00390625 11.136719 C 0.0234375 10.425781 0.113281 9.722656 0.273438 9.027344 C 0.847656 10.859375 1.988281 12.265625 3.691406 13.246094 C 5.175781 14.058594 6.761719 14.355469 8.457031 14.136719 C 10.15625 13.886719 11.601562 13.171875 12.789062 11.996094 C 14.117188 10.621094 14.796875 8.988281 14.824219 7.101562 C 14.792969 5.203125 14.109375 3.566406 12.765625 2.1875 C 11.832031 1.265625 10.714844 0.621094 9.417969 0.261719 C 10.121094 0.113281 10.832031 0.0234375 11.550781 -0.00390625 Z M 11.550781 -0.00390625 "/>
</g>
</svg>
