<?xml version="1.0" encoding="UTF-8"?>
<svg xmlns="http://www.w3.org/2000/svg" xmlns:xlink="http://www.w3.org/1999/xlink" width="24px" height="24px" viewBox="0 0 24 24" version="1.1">
<defs>
<filter id="alpha" filterUnits="objectBoundingBox" x="0%" y="0%" width="100%" height="100%">
  <feColorMatrix type="matrix" in="SourceGraphic" values="0 0 0 0 1 0 0 0 0 1 0 0 0 0 1 0 0 0 1 0"/>
</filter>
<mask id="mask0">
  <g filter="url(#alpha)">
<rect x="0" y="0" width="24" height="24" style="fill:rgb(0%,0%,0%);fill-opacity:0.67451;stroke:none;"/>
  </g>
</mask>
<clipPath id="clip1">
  <rect x="0" y="0" width="24" height="24"/>
</clipPath>
<g id="surface5" clip-path="url(#clip1)">
<path style=" stroke:none;fill-rule:evenodd;fill:rgb(29.803922%,31.764706%,35.294118%);fill-opacity:1;" d="M 10.875 0.125 C 10.507812 0.257812 10.121094 0.3125 9.707031 0.289062 C 10.078125 0.167969 10.464844 0.113281 10.875 0.125 Z M 10.875 0.125 "/>
</g>
<mask id="mask1">
  <g filter="url(#alpha)">
<rect x="0" y="0" width="24" height="24" style="fill:rgb(0%,0%,0%);fill-opacity:0.168627;stroke:none;"/>
  </g>
</mask>
<clipPath id="clip2">
  <rect x="0" y="0" width="24" height="24"/>
</clipPath>
<g id="surface8" clip-path="url(#clip2)">
<path style=" stroke:none;fill-rule:evenodd;fill:rgb(25.098039%,25.882353%,29.411765%);fill-opacity:1;" d="M 14.207031 0.289062 C 14.652344 0.339844 15.066406 0.449219 15.457031 0.621094 C 15.015625 0.574219 14.597656 0.464844 14.207031 0.289062 Z M 14.207031 0.289062 "/>
</g>
<mask id="mask2">
  <g filter="url(#alpha)">
<rect x="0" y="0" width="24" height="24" style="fill:rgb(0%,0%,0%);fill-opacity:0.423529;stroke:none;"/>
  </g>
</mask>
<clipPath id="clip3">
  <rect x="0" y="0" width="24" height="24"/>
</clipPath>
<g id="surface11" clip-path="url(#clip3)">
<path style=" stroke:none;fill-rule:evenodd;fill:rgb(27.45098%,28.627451%,31.764706%);fill-opacity:1;" d="M 9.707031 0.289062 C 9.371094 0.4375 9.011719 0.519531 8.625 0.539062 C 8.960938 0.394531 9.324219 0.3125 9.707031 0.289062 Z M 9.707031 0.289062 "/>
</g>
<mask id="mask3">
  <g filter="url(#alpha)">
<rect x="0" y="0" width="24" height="24" style="fill:rgb(0%,0%,0%);fill-opacity:0.494118;stroke:none;"/>
  </g>
</mask>
<clipPath id="clip4">
  <rect x="0" y="0" width="24" height="24"/>
</clipPath>
<g id="surface14" clip-path="url(#clip4)">
<path style=" stroke:none;fill-rule:evenodd;fill:rgb(26.27451%,28.627451%,30.980392%);fill-opacity:1;" d="M 8.625 0.539062 C 8.183594 0.769531 7.710938 0.9375 7.207031 1.039062 C 7.652344 0.804688 8.121094 0.636719 8.625 0.539062 Z M 8.625 0.539062 "/>
</g>
<mask id="mask4">
  <g filter="url(#alpha)">
<rect x="0" y="0" width="24" height="24" style="fill:rgb(0%,0%,0%);fill-opacity:0.145098;stroke:none;"/>
  </g>
</mask>
<clipPath id="clip5">
  <rect x="0" y="0" width="24" height="24"/>
</clipPath>
<g id="surface17" clip-path="url(#clip5)">
<path style=" stroke:none;fill-rule:evenodd;fill:rgb(23.137255%,24.705882%,26.666667%);fill-opacity:1;" d="M 16.792969 1.121094 C 17.230469 1.226562 17.617188 1.421875 17.957031 1.703125 C 17.542969 1.550781 17.152344 1.355469 16.792969 1.121094 Z M 16.792969 1.121094 "/>
</g>
<mask id="mask5">
  <g filter="url(#alpha)">
<rect x="0" y="0" width="24" height="24" style="fill:rgb(0%,0%,0%);fill-opacity:0.635294;stroke:none;"/>
  </g>
</mask>
<clipPath id="clip6">
  <rect x="0" y="0" width="24" height="24"/>
</clipPath>
<g id="surface20" clip-path="url(#clip6)">
<path style=" stroke:none;fill-rule:evenodd;fill:rgb(27.058824%,29.019608%,31.372549%);fill-opacity:1;" d="M 7.207031 1.039062 C 6.8125 1.34375 6.371094 1.566406 5.875 1.703125 C 6.269531 1.394531 6.714844 1.171875 7.207031 1.039062 Z M 7.207031 1.039062 "/>
</g>
<mask id="mask6">
  <g filter="url(#alpha)">
<rect x="0" y="0" width="24" height="24" style="fill:rgb(0%,0%,0%);fill-opacity:0.243137;stroke:none;"/>
  </g>
</mask>
<clipPath id="clip7">
  <rect x="0" y="0" width="24" height="24"/>
</clipPath>
<g id="surface23" clip-path="url(#clip7)">
<path style=" stroke:none;fill-rule:evenodd;fill:rgb(23.529412%,25.098039%,26.666667%);fill-opacity:1;" d="M 5.875 1.703125 C 5.792969 1.859375 5.652344 1.945312 5.457031 1.953125 C 5.554688 1.804688 5.695312 1.722656 5.875 1.703125 Z M 5.875 1.703125 "/>
</g>
<mask id="mask7">
  <g filter="url(#alpha)">
<rect x="0" y="0" width="24" height="24" style="fill:rgb(0%,0%,0%);fill-opacity:0.0235294;stroke:none;"/>
  </g>
</mask>
<clipPath id="clip8">
  <rect x="0" y="0" width="24" height="24"/>
</clipPath>
<g id="surface26" clip-path="url(#clip8)">
<path style=" stroke:none;fill-rule:evenodd;fill:rgb(17.647059%,18.431373%,19.215686%);fill-opacity:1;" d="M 18.792969 2.199219 C 18.949219 2.21875 19.0625 2.304688 19.125 2.449219 C 18.964844 2.429688 18.855469 2.347656 18.792969 2.199219 Z M 18.792969 2.199219 "/>
</g>
<mask id="mask8">
  <g filter="url(#alpha)">
<rect x="0" y="0" width="24" height="24" style="fill:rgb(0%,0%,0%);fill-opacity:0.207843;stroke:none;"/>
  </g>
</mask>
<clipPath id="clip9">
  <rect x="0" y="0" width="24" height="24"/>
</clipPath>
<g id="surface29" clip-path="url(#clip9)">
<path style=" stroke:none;fill-rule:evenodd;fill:rgb(21.960784%,23.529412%,25.098039%);fill-opacity:1;" d="M 5.207031 2.117188 C 4.949219 2.402344 4.644531 2.625 4.292969 2.78125 C 4.550781 2.496094 4.855469 2.277344 5.207031 2.117188 Z M 5.207031 2.117188 "/>
</g>
<mask id="mask9">
  <g filter="url(#alpha)">
<rect x="0" y="0" width="24" height="24" style="fill:rgb(0%,0%,0%);fill-opacity:0.227451;stroke:none;"/>
  </g>
</mask>
<clipPath id="clip10">
  <rect x="0" y="0" width="24" height="24"/>
</clipPath>
<g id="surface32" clip-path="url(#clip10)">
<path style=" stroke:none;fill-rule:evenodd;fill:rgb(26.27451%,27.45098%,29.411765%);fill-opacity:1;" d="M 2.957031 4.109375 C 2.855469 4.355469 2.6875 4.546875 2.457031 4.691406 C 2.5625 4.449219 2.730469 4.253906 2.957031 4.109375 Z M 2.957031 4.109375 "/>
</g>
<mask id="mask10">
  <g filter="url(#alpha)">
<rect x="0" y="0" width="24" height="24" style="fill:rgb(0%,0%,0%);fill-opacity:0.827451;stroke:none;"/>
  </g>
</mask>
<clipPath id="clip11">
  <rect x="0" y="0" width="24" height="24"/>
</clipPath>
<g id="surface35" clip-path="url(#clip11)">
<path style=" stroke:none;fill-rule:evenodd;fill:rgb(29.411765%,31.372549%,34.901961%);fill-opacity:1;" d="M 21.207031 4.441406 C 21.433594 4.667969 21.628906 4.917969 21.792969 5.191406 C 21.503906 5.011719 21.308594 4.765625 21.207031 4.441406 Z M 21.207031 4.441406 "/>
</g>
<mask id="mask11">
  <g filter="url(#alpha)">
<rect x="0" y="0" width="24" height="24" style="fill:rgb(0%,0%,0%);fill-opacity:0.227451;stroke:none;"/>
  </g>
</mask>
<clipPath id="clip12">
  <rect x="0" y="0" width="24" height="24"/>
</clipPath>
<g id="surface38" clip-path="url(#clip12)">
<path style=" stroke:none;fill-rule:evenodd;fill:rgb(21.960784%,22.352941%,24.313725%);fill-opacity:1;" d="M 2.457031 4.691406 C 2.296875 5.042969 2.074219 5.347656 1.792969 5.605469 C 1.949219 5.253906 2.171875 4.949219 2.457031 4.691406 Z M 2.457031 4.691406 "/>
</g>
<mask id="mask12">
  <g filter="url(#alpha)">
<rect x="0" y="0" width="24" height="24" style="fill:rgb(0%,0%,0%);fill-opacity:0.588235;stroke:none;"/>
  </g>
</mask>
<clipPath id="clip13">
  <rect x="0" y="0" width="24" height="24"/>
</clipPath>
<g id="surface41" clip-path="url(#clip13)">
<path style=" stroke:none;fill-rule:evenodd;fill:rgb(27.843137%,29.803922%,32.54902%);fill-opacity:1;" d="M 1.457031 6.1875 C 1.378906 6.570312 1.210938 6.902344 0.957031 7.183594 C 1.039062 6.800781 1.207031 6.46875 1.457031 6.1875 Z M 1.457031 6.1875 "/>
</g>
<mask id="mask13">
  <g filter="url(#alpha)">
<rect x="0" y="0" width="24" height="24" style="fill:rgb(0%,0%,0%);fill-opacity:0.670588;stroke:none;"/>
  </g>
</mask>
<clipPath id="clip14">
  <rect x="0" y="0" width="24" height="24"/>
</clipPath>
<g id="surface44" clip-path="url(#clip14)">
<path style=" stroke:none;fill-rule:evenodd;fill:rgb(30.196078%,31.764706%,36.078431%);fill-opacity:1;" d="M 0.957031 7.183594 C 0.9375 7.5 0.828125 7.777344 0.625 8.015625 C 0.65625 7.699219 0.765625 7.421875 0.957031 7.183594 Z M 0.957031 7.183594 "/>
</g>
<mask id="mask14">
  <g filter="url(#alpha)">
<rect x="0" y="0" width="24" height="24" style="fill:rgb(0%,0%,0%);fill-opacity:0.419608;stroke:none;"/>
  </g>
</mask>
<clipPath id="clip15">
  <rect x="0" y="0" width="24" height="24"/>
</clipPath>
<g id="surface47" clip-path="url(#clip15)">
<path style=" stroke:none;fill-rule:evenodd;fill:rgb(19.215686%,20.784314%,23.921569%);fill-opacity:1;" d="M 15.457031 7.265625 C 15.644531 7.316406 15.785156 7.425781 15.875 7.597656 C 15.6875 7.550781 15.546875 7.441406 15.457031 7.265625 Z M 15.457031 7.265625 "/>
</g>
<mask id="mask15">
  <g filter="url(#alpha)">
<rect x="0" y="0" width="24" height="24" style="fill:rgb(0%,0%,0%);fill-opacity:0.396078;stroke:none;"/>
  </g>
</mask>
<clipPath id="clip16">
  <rect x="0" y="0" width="24" height="24"/>
</clipPath>
<g id="surface50" clip-path="url(#clip16)">
<path style=" stroke:none;fill-rule:evenodd;fill:rgb(22.352941%,23.529412%,25.490196%);fill-opacity:1;" d="M 15.875 7.597656 C 16.058594 7.65625 16.210938 7.769531 16.332031 7.929688 C 16.480469 8.117188 16.605469 8.308594 16.707031 8.511719 C 16.410156 8.226562 16.132812 7.921875 15.875 7.597656 Z M 15.875 7.597656 "/>
</g>
<mask id="mask16">
  <g filter="url(#alpha)">
<rect x="0" y="0" width="24" height="24" style="fill:rgb(0%,0%,0%);fill-opacity:0.54902;stroke:none;"/>
  </g>
</mask>
<clipPath id="clip17">
  <rect x="0" y="0" width="24" height="24"/>
</clipPath>
<g id="surface53" clip-path="url(#clip17)">
<path style=" stroke:none;fill-rule:evenodd;fill:rgb(27.843137%,29.803922%,32.941176%);fill-opacity:1;" d="M 0.625 8.015625 C 0.535156 8.507812 0.394531 8.976562 0.207031 9.425781 C 0.265625 8.921875 0.40625 8.453125 0.625 8.015625 Z M 0.625 8.015625 "/>
</g>
<mask id="mask17">
  <g filter="url(#alpha)">
<rect x="0" y="0" width="24" height="24" style="fill:rgb(0%,0%,0%);fill-opacity:0.537255;stroke:none;"/>
  </g>
</mask>
<clipPath id="clip18">
  <rect x="0" y="0" width="24" height="24"/>
</clipPath>
<g id="surface56" clip-path="url(#clip18)">
<path style=" stroke:none;fill-rule:evenodd;fill:rgb(30.196078%,32.156863%,34.901961%);fill-opacity:1;" d="M 0.207031 9.425781 C 0.160156 10.023438 0.078125 10.605469 -0.0429688 11.167969 C -0.0429688 10.894531 -0.0429688 10.617188 -0.0429688 10.339844 C 0.03125 10.03125 0.117188 9.726562 0.207031 9.425781 Z M 0.207031 9.425781 "/>
</g>
<mask id="mask18">
  <g filter="url(#alpha)">
<rect x="0" y="0" width="24" height="24" style="fill:rgb(0%,0%,0%);fill-opacity:0.101961;stroke:none;"/>
  </g>
</mask>
<clipPath id="clip19">
  <rect x="0" y="0" width="24" height="24"/>
</clipPath>
<g id="surface59" clip-path="url(#clip19)">
<path style=" stroke:none;fill-rule:evenodd;fill:rgb(19.607843%,21.176471%,22.745098%);fill-opacity:1;" d="M 16.707031 8.511719 C 17.355469 9.277344 17.757812 10.164062 17.917969 11.167969 C 17.972656 11.722656 17.972656 12.277344 17.917969 12.832031 C 17.871094 13.070312 17.800781 13.292969 17.707031 13.496094 C 18.066406 11.6875 17.734375 10.023438 16.707031 8.511719 Z M 16.707031 8.511719 "/>
</g>
<mask id="mask19">
  <g filter="url(#alpha)">
<rect x="0" y="0" width="24" height="24" style="fill:rgb(0%,0%,0%);fill-opacity:0.760784;stroke:none;"/>
  </g>
</mask>
<clipPath id="clip20">
  <rect x="0" y="0" width="24" height="24"/>
</clipPath>
<g id="surface62" clip-path="url(#clip20)">
<path style=" stroke:none;fill-rule:evenodd;fill:rgb(25.098039%,26.27451%,29.411765%);fill-opacity:1;" d="M 6.125 13.496094 C 6.238281 13.695312 6.324219 13.917969 6.375 14.160156 C 6.195312 13.984375 6.113281 13.761719 6.125 13.496094 Z M 6.125 13.496094 "/>
</g>
<mask id="mask20">
  <g filter="url(#alpha)">
<rect x="0" y="0" width="24" height="24" style="fill:rgb(0%,0%,0%);fill-opacity:0.0509804;stroke:none;"/>
  </g>
</mask>
<clipPath id="clip21">
  <rect x="0" y="0" width="24" height="24"/>
</clipPath>
<g id="surface65" clip-path="url(#clip21)">
<path style=" stroke:none;fill-rule:evenodd;fill:rgb(24.705882%,26.27451%,28.627451%);fill-opacity:1;" d="M -0.0429688 13.078125 C 0.125 14.078125 0.347656 15.074219 0.625 16.070312 C 0.515625 15.957031 0.449219 15.820312 0.417969 15.652344 C 0.246094 15.011719 0.09375 14.375 -0.0429688 13.742188 C -0.0429688 13.523438 -0.0429688 13.300781 -0.0429688 13.078125 Z M -0.0429688 13.078125 "/>
</g>
<mask id="mask21">
  <g filter="url(#alpha)">
<rect x="0" y="0" width="24" height="24" style="fill:rgb(0%,0%,0%);fill-opacity:0.333333;stroke:none;"/>
  </g>
</mask>
<clipPath id="clip22">
  <rect x="0" y="0" width="24" height="24"/>
</clipPath>
<g id="surface68" clip-path="url(#clip22)">
<path style=" stroke:none;fill-rule:evenodd;fill:rgb(18.039216%,18.823529%,20.784314%);fill-opacity:1;" d="M 7.125 15.570312 C 7.300781 15.660156 7.410156 15.800781 7.457031 15.984375 C 7.285156 15.894531 7.171875 15.757812 7.125 15.570312 Z M 7.125 15.570312 "/>
</g>
<mask id="mask22">
  <g filter="url(#alpha)">
<rect x="0" y="0" width="24" height="24" style="fill:rgb(0%,0%,0%);fill-opacity:0.772549;stroke:none;"/>
  </g>
</mask>
<clipPath id="clip23">
  <rect x="0" y="0" width="24" height="24"/>
</clipPath>
<g id="surface71" clip-path="url(#clip23)">
<path style=" stroke:none;fill-rule:evenodd;fill:rgb(21.568627%,23.529412%,25.490196%);fill-opacity:1;" d="M 7.457031 15.984375 C 7.765625 16.265625 8.070312 16.542969 8.375 16.816406 C 7.964844 16.65625 7.65625 16.378906 7.457031 15.984375 Z M 7.457031 15.984375 "/>
</g>
<mask id="mask23">
  <g filter="url(#alpha)">
<rect x="0" y="0" width="24" height="24" style="fill:rgb(0%,0%,0%);fill-opacity:0.427451;stroke:none;"/>
  </g>
</mask>
<clipPath id="clip24">
  <rect x="0" y="0" width="24" height="24"/>
</clipPath>
<g id="surface74" clip-path="url(#clip24)">
<path style=" stroke:none;fill-rule:evenodd;fill:rgb(17.647059%,18.823529%,20.392157%);fill-opacity:1;" d="M 17.625 13.828125 C 17.222656 15.210938 16.417969 16.304688 15.207031 17.105469 C 14.992188 17.226562 14.773438 17.324219 14.542969 17.398438 C 15.976562 16.558594 17.003906 15.371094 17.625 13.828125 Z M 17.625 13.828125 "/>
</g>
<mask id="mask24">
  <g filter="url(#alpha)">
<rect x="0" y="0" width="24" height="24" style="fill:rgb(0%,0%,0%);fill-opacity:0.192157;stroke:none;"/>
  </g>
</mask>
<clipPath id="clip25">
  <rect x="0" y="0" width="24" height="24"/>
</clipPath>
<g id="surface77" clip-path="url(#clip25)">
<path style=" stroke:none;fill-rule:evenodd;fill:rgb(18.039216%,18.431373%,20.392157%);fill-opacity:1;" d="M 8.375 16.816406 C 8.703125 16.976562 9.007812 17.171875 9.292969 17.398438 C 8.917969 17.300781 8.613281 17.109375 8.375 16.816406 Z M 8.375 16.816406 "/>
</g>
<mask id="mask25">
  <g filter="url(#alpha)">
<rect x="0" y="0" width="24" height="24" style="fill:rgb(0%,0%,0%);fill-opacity:0.0705882;stroke:none;"/>
  </g>
</mask>
<clipPath id="clip26">
  <rect x="0" y="0" width="24" height="24"/>
</clipPath>
<g id="surface80" clip-path="url(#clip26)">
<path style=" stroke:none;fill-rule:evenodd;fill:rgb(14.901961%,14.901961%,17.254902%);fill-opacity:1;" d="M 14.457031 17.398438 C 14.339844 17.566406 14.175781 17.648438 13.957031 17.648438 C 14.097656 17.523438 14.265625 17.4375 14.457031 17.398438 Z M 14.457031 17.398438 "/>
</g>
<mask id="mask26">
  <g filter="url(#alpha)">
<rect x="0" y="0" width="24" height="24" style="fill:rgb(0%,0%,0%);fill-opacity:0.196078;stroke:none;"/>
  </g>
</mask>
<clipPath id="clip27">
  <rect x="0" y="0" width="24" height="24"/>
</clipPath>
<g id="surface83" clip-path="url(#clip27)">
<path style=" stroke:none;fill-rule:evenodd;fill:rgb(19.215686%,20.392157%,22.745098%);fill-opacity:1;" d="M 9.292969 17.398438 C 9.777344 17.589844 10.277344 17.742188 10.792969 17.855469 C 11.863281 17.957031 12.917969 17.886719 13.957031 17.648438 C 12.585938 18.183594 11.199219 18.199219 9.792969 17.6875 C 9.605469 17.609375 9.4375 17.511719 9.292969 17.398438 Z M 9.292969 17.398438 "/>
</g>
</defs>
<g id="surface1">
<path style=" stroke:none;fill-rule:evenodd;fill:rgb(45.882353%,49.411765%,54.509804%);fill-opacity:1;" d="M 14.207031 0.289062 C 14.597656 0.464844 15.015625 0.574219 15.457031 0.621094 C 15.941406 0.707031 16.386719 0.875 16.792969 1.121094 C 17.152344 1.355469 17.542969 1.550781 17.957031 1.703125 C 18.265625 1.828125 18.542969 1.992188 18.792969 2.199219 C 18.855469 2.347656 18.964844 2.429688 19.125 2.449219 C 19.871094 3.054688 20.566406 3.71875 21.207031 4.441406 C 21.308594 4.765625 21.503906 5.011719 21.792969 5.191406 C 23.078125 7.070312 23.800781 9.148438 23.957031 11.417969 C 23.957031 11.863281 23.957031 12.304688 23.957031 12.746094 C 23.59375 17.027344 21.566406 20.28125 17.875 22.503906 C 16.507812 23.25 15.0625 23.734375 13.542969 23.957031 C 12.429688 23.957031 11.320312 23.957031 10.207031 23.957031 C 5.996094 23.234375 2.925781 20.964844 1 17.148438 C 0.828125 16.804688 0.703125 16.445312 0.625 16.070312 C 0.347656 15.074219 0.125 14.078125 -0.0429688 13.078125 C -0.0429688 12.441406 -0.0429688 11.804688 -0.0429688 11.167969 C 0.078125 10.605469 0.160156 10.023438 0.207031 9.425781 C 0.394531 8.976562 0.535156 8.507812 0.625 8.015625 C 0.828125 7.777344 0.9375 7.5 0.957031 7.183594 C 1.210938 6.902344 1.378906 6.570312 1.457031 6.1875 C 1.507812 5.953125 1.617188 5.757812 1.792969 5.605469 C 2.074219 5.347656 2.296875 5.042969 2.457031 4.691406 C 2.6875 4.546875 2.855469 4.355469 2.957031 4.109375 C 3.375 3.640625 3.820312 3.195312 4.292969 2.78125 C 4.644531 2.625 4.949219 2.402344 5.207031 2.117188 C 5.246094 2 5.332031 1.945312 5.457031 1.953125 C 5.652344 1.945312 5.792969 1.859375 5.875 1.703125 C 6.371094 1.566406 6.8125 1.34375 7.207031 1.039062 C 7.710938 0.9375 8.183594 0.769531 8.625 0.539062 C 9.011719 0.519531 9.371094 0.4375 9.707031 0.289062 C 10.121094 0.3125 10.507812 0.257812 10.875 0.125 C 11.992188 0 13.105469 0.0546875 14.207031 0.289062 Z M 15.457031 7.265625 C 15.546875 7.441406 15.6875 7.550781 15.875 7.597656 C 16.132812 7.921875 16.410156 8.226562 16.707031 8.511719 C 17.734375 10.023438 18.066406 11.6875 17.707031 13.496094 C 17.628906 13.582031 17.601562 13.695312 17.625 13.828125 C 17.003906 15.371094 15.976562 16.558594 14.542969 17.398438 C 14.515625 17.398438 14.484375 17.398438 14.457031 17.398438 C 14.265625 17.4375 14.097656 17.523438 13.957031 17.648438 C 12.917969 17.886719 11.863281 17.957031 10.792969 17.855469 C 10.277344 17.742188 9.777344 17.589844 9.292969 17.398438 C 9.007812 17.171875 8.703125 16.976562 8.375 16.816406 C 8.070312 16.542969 7.765625 16.265625 7.457031 15.984375 C 7.410156 15.800781 7.300781 15.660156 7.125 15.570312 C 6.855469 15.117188 6.605469 14.644531 6.375 14.160156 C 6.324219 13.917969 6.238281 13.695312 6.125 13.496094 C 5.628906 9.953125 7.046875 7.558594 10.375 6.3125 C 11.492188 6.125 12.605469 6.152344 13.707031 6.394531 C 14.320312 6.644531 14.902344 6.933594 15.457031 7.265625 Z M 15.457031 7.265625 "/>
<use xlink:href="#surface5" mask="url(#mask0)"/>
<use xlink:href="#surface8" mask="url(#mask1)"/>
<use xlink:href="#surface11" mask="url(#mask2)"/>
<use xlink:href="#surface14" mask="url(#mask3)"/>
<use xlink:href="#surface17" mask="url(#mask4)"/>
<use xlink:href="#surface20" mask="url(#mask5)"/>
<use xlink:href="#surface23" mask="url(#mask6)"/>
<use xlink:href="#surface26" mask="url(#mask7)"/>
<use xlink:href="#surface29" mask="url(#mask8)"/>
<use xlink:href="#surface32" mask="url(#mask9)"/>
<use xlink:href="#surface35" mask="url(#mask10)"/>
<use xlink:href="#surface38" mask="url(#mask11)"/>
<use xlink:href="#surface41" mask="url(#mask12)"/>
<use xlink:href="#surface44" mask="url(#mask13)"/>
<use xlink:href="#surface47" mask="url(#mask14)"/>
<use xlink:href="#surface50" mask="url(#mask15)"/>
<use xlink:href="#surface53" mask="url(#mask16)"/>
<use xlink:href="#surface56" mask="url(#mask17)"/>
<use xlink:href="#surface59" mask="url(#mask18)"/>
<use xlink:href="#surface62" mask="url(#mask19)"/>
<use xlink:href="#surface65" mask="url(#mask20)"/>
<use xlink:href="#surface68" mask="url(#mask21)"/>
<use xlink:href="#surface71" mask="url(#mask22)"/>
<use xlink:href="#surface74" mask="url(#mask23)"/>
<use xlink:href="#surface77" mask="url(#mask24)"/>
<use xlink:href="#surface80" mask="url(#mask25)"/>
<use xlink:href="#surface83" mask="url(#mask26)"/>
</g>
</svg>
