<?xml version="1.0" encoding="UTF-8"?>
<svg xmlns="http://www.w3.org/2000/svg" xmlns:xlink="http://www.w3.org/1999/xlink" width="24px" height="24px" viewBox="0 0 24 24" version="1.1">
<g id="surface1">
<path style=" stroke:none;fill-rule:evenodd;fill:rgb(26.27451%,70.980392%,50.196078%);fill-opacity:1;" d="M 11.546875 -0.00390625 C 11.847656 -0.00390625 12.144531 -0.00390625 12.445312 -0.00390625 C 15.292969 0.132812 17.789062 1.128906 19.933594 2.984375 C 21.640625 4.503906 22.832031 6.367188 23.503906 8.5625 C 23.792969 9.539062 23.953125 10.535156 23.996094 11.546875 C 23.996094 11.847656 23.996094 12.144531 23.996094 12.445312 C 23.859375 15.292969 22.863281 17.789062 21.007812 19.933594 C 19.488281 21.640625 17.625 22.832031 15.429688 23.503906 C 14.453125 23.792969 13.457031 23.953125 12.445312 23.996094 C 12.144531 23.996094 11.847656 23.996094 11.546875 23.996094 C 8.699219 23.859375 6.203125 22.863281 4.058594 21.007812 C 2.351562 19.488281 1.160156 17.625 0.488281 15.429688 C 0.199219 14.453125 0.0351562 13.457031 -0.00390625 12.445312 C -0.00390625 12.144531 -0.00390625 11.847656 -0.00390625 11.546875 C 0.132812 8.699219 1.128906 6.203125 2.984375 4.058594 C 4.503906 2.351562 6.367188 1.160156 8.5625 0.488281 C 9.539062 0.199219 10.535156 0.0351562 11.546875 -0.00390625 Z M 11.546875 -0.00390625 "/>
</g>
</svg>
