<?xml version="1.0" encoding="UTF-8"?>
<svg xmlns="http://www.w3.org/2000/svg" xmlns:xlink="http://www.w3.org/1999/xlink" width="24px" height="24px" viewBox="0 0 24 24" version="1.1">
<defs>
<linearGradient id="linear0" gradientUnits="userSpaceOnUse" x1="0.5" y1="0" x2="0.5" y2="1" gradientTransform="matrix(23.605469,0,0,23.632812,0.195312,0.183594)">
<stop offset="0" style="stop-color:rgb(6.666667%,11.372549%,18.039216%);stop-opacity:1;"/>
<stop offset="0.212" style="stop-color:rgb(1.960784%,9.411765%,22.352941%);stop-opacity:1;"/>
<stop offset="0.407" style="stop-color:rgb(3.921569%,10.588235%,28.235294%);stop-opacity:1;"/>
<stop offset="0.581" style="stop-color:rgb(7.45098%,18.039216%,38.431373%);stop-opacity:1;"/>
<stop offset="0.738" style="stop-color:rgb(7.843137%,29.411765%,49.411765%);stop-opacity:1;"/>
<stop offset="0.873" style="stop-color:rgb(7.45098%,39.215686%,59.215686%);stop-opacity:1;"/>
<stop offset="1" style="stop-color:rgb(7.45098%,52.941176%,72.156863%);stop-opacity:1;"/>
</linearGradient>
</defs>
<g id="surface1">
<path style=" stroke:none;fill-rule:nonzero;fill:url(#linear0);" d="M 0.667969 15.398438 C 2.125 20.265625 6.640625 23.816406 11.984375 23.816406 C 18.511719 23.816406 23.800781 18.527344 23.800781 12 C 23.800781 5.472656 18.511719 0.183594 11.984375 0.183594 C 5.722656 0.183594 0.601562 5.054688 0.195312 11.214844 C 0.960938 12.5 1.257812 13.292969 0.664062 15.398438 Z M 0.667969 15.398438 "/>
<path style=" stroke:none;fill-rule:nonzero;fill:rgb(100%,100%,100%);fill-opacity:1;" d="M 11.375 9.039062 L 11.378906 9.097656 L 8.484375 13.300781 C 8.019531 13.277344 7.546875 13.359375 7.101562 13.542969 C 6.90625 13.621094 6.722656 13.722656 6.550781 13.839844 L 0.199219 11.222656 C 0.199219 11.222656 0.0546875 13.640625 0.664062 15.441406 L 5.152344 17.292969 C 5.375 18.300781 6.070312 19.183594 7.089844 19.605469 C 8.761719 20.300781 10.675781 19.511719 11.375 17.839844 C 11.550781 17.414062 11.636719 16.953125 11.625 16.492188 L 15.757812 13.535156 L 15.859375 13.539062 C 18.335938 13.539062 20.347656 11.519531 20.347656 9.039062 C 20.347656 6.5625 18.339844 4.550781 15.859375 4.546875 C 13.386719 4.546875 11.371094 6.5625 11.371094 9.039062 Z M 10.683594 17.550781 C 10.144531 18.84375 8.664062 19.453125 7.375 18.914062 C 6.804688 18.675781 6.339844 18.234375 6.074219 17.675781 L 7.535156 18.28125 C 8.484375 18.675781 9.574219 18.226562 9.96875 17.277344 C 10.363281 16.324219 9.917969 15.234375 8.96875 14.839844 L 7.453125 14.210938 C 8.035156 13.992188 8.699219 13.984375 9.316406 14.242188 C 9.945312 14.5 10.425781 14.988281 10.683594 15.613281 C 10.941406 16.238281 10.9375 16.929688 10.679688 17.550781 M 15.863281 12.035156 C 14.210938 12.03125 12.875 10.691406 12.875 9.042969 C 12.875 7.390625 14.214844 6.050781 15.863281 6.046875 C 17.515625 6.050781 18.851562 7.390625 18.855469 9.042969 C 18.855469 10.691406 17.515625 12.03125 15.863281 12.035156 M 13.625 9.035156 C 13.621094 7.796875 14.628906 6.789062 15.867188 6.785156 C 17.109375 6.785156 18.113281 7.792969 18.113281 9.035156 C 18.117188 10.277344 17.109375 11.285156 15.867188 11.285156 C 14.628906 11.285156 13.621094 10.277344 13.625 9.035156 Z M 13.625 9.035156 "/>
</g>
</svg>
